<svg width="1200" height="630" viewBox="0 0 1200 630" xmlns="http://www.w3.org/2000/svg">
  <rect width="1200" height="630" fill="#0c0c0c"/>
  <rect x="0" y="0" width="8" height="630" fill="#22c55e"/>
  <rect x="72" y="72" width="1056" height="2" fill="#2a2a2a"/>
  <rect x="72" y="558" width="1056" height="2" fill="#2a2a2a"/>
  <circle cx="104" cy="122" r="10" fill="#22c55e"/>
  <text x="124" y="130" font-family="monospace" font-size="22" fill="#a1a1aa" letter-spacing="1">permitted.io/mcp</text>
  <text x="72" y="290" font-family="-apple-system, system-ui, sans-serif" font-size="76" font-weight="600" fill="#fafafa" letter-spacing="-1">See what your MCP</text>
  <text x="72" y="378" font-family="-apple-system, system-ui, sans-serif" font-size="76" font-weight="600" fill="#fafafa" letter-spacing="-1">servers can actually do.</text>
  <rect x="72" y="420" width="152" height="44" rx="6" fill="#451a03"/>
  <text x="148" y="447" font-family="monospace" font-size="18" fill="#fb923c" text-anchor="middle" font-weight="500">Filesystem</text>
  <rect x="236" y="420" width="132" height="44" rx="6" fill="#0c1a2e"/>
  <text x="302" y="447" font-family="monospace" font-size="18" fill="#60a5fa" text-anchor="middle" font-weight="500">Network</text>
  <rect x="380" y="420" width="202" height="44" rx="6" fill="#1a1a2e"/>
  <text x="481" y="447" font-family="monospace" font-size="18" fill="#a78bfa" text-anchor="middle" font-weight="500">Code execution</text>
  <rect x="594" y="420" width="148" height="44" rx="6" fill="#0d2018"/>
  <text x="668" y="447" font-family="monospace" font-size="18" fill="#4ade80" text-anchor="middle" font-weight="500">Database</text>
  <rect x="754" y="420" width="174" height="44" rx="6" fill="#1c1410"/>
  <text x="841" y="447" font-family="monospace" font-size="18" fill="#fbbf24" text-anchor="middle" font-weight="500">External API</text>
  <rect x="940" y="420" width="116" height="44" rx="6" fill="#1a0d1a"/>
  <text x="998" y="447" font-family="monospace" font-size="18" fill="#e879f9" text-anchor="middle" font-weight="500">Secrets</text>
  <text x="72" y="530" font-family="-apple-system, system-ui, sans-serif" font-size="22" fill="#52525b">Parsing runs in your browser. Nothing is sent anywhere.</text>
</svg>
